<svg width="15" height="10" viewBox="0 0 15 10" fill="none" xmlns="http://www.w3.org/2000/svg">
<path fill-rule="evenodd" clip-rule="evenodd" d="M5.59934 4.86704C5.59934 5.87407 6.43639 6.69218 7.46682 6.69218C8.49721 6.69218 9.33429 5.87407 9.33429 4.86704V4.85187C9.13495 5.04958 8.86137 5.17124 8.55614 5.17124C7.95529 5.17124 7.46682 4.69367 7.46682 4.10659C7.46682 3.68386 7.7218 3.31567 8.08619 3.14529C7.89329 3.07843 7.68476 3.04193 7.46682 3.04193C6.43639 3.0419 5.59934 3.8601 5.59934 4.86704ZM14.5197 3.82967C13.3616 2.391 10.5419 0 7.46983 0C4.39482 0 1.572 2.39103 0.413933 3.82967C0.152548 4.15825 0.00938653 4.51415 0 4.86704C0.00942079 5.21996 0.152548 5.57586 0.413933 5.90437C1.57204 7.34335 4.39173 9.73401 7.46682 9.73401C10.5419 9.73401 13.3616 7.34335 14.5197 5.90437C14.7841 5.57583 14.9273 5.21996 14.9367 4.86704C14.9273 4.51415 14.7841 4.15825 14.5197 3.82967ZM7.46682 7.90887C5.74891 7.90887 4.35436 6.5461 4.35436 4.86704C4.35436 3.18794 5.74891 1.82514 7.46682 1.82514C9.18469 1.82514 10.5792 3.18794 10.5792 4.86704C10.5792 6.54607 9.18466 7.90887 7.46682 7.90887Z" fill="#D4D9E2"/>
</svg>
