<svg width="20" height="16" viewBox="0 0 20 16" fill="none" xmlns="http://www.w3.org/2000/svg">
<path d="M18.1915 2.88335H15.1317L13.3004 1.0339C13.3004 1.0339 13.2914 1.02483 13.2868 1.02483L13.2778 1.01576C13.0058 0.743786 12.6386 0.571533 12.2216 0.571533H8.41388C7.96965 0.571533 7.57528 0.761918 7.29877 1.06563V1.07016L5.50825 2.88335H2.3805C1.53737 2.88335 0.857422 3.54516 0.857422 4.38829V13.5494C0.857422 14.3925 1.53737 15.077 2.3805 15.077H18.1915C19.0301 15.077 19.7146 14.3925 19.7146 13.5494V4.38829C19.7146 3.54516 19.0301 2.88335 18.1915 2.88335ZM10.286 12.7879C7.97871 12.7879 6.09753 10.9022 6.09753 8.59035C6.09753 6.27401 7.97871 4.39282 10.286 4.39282C12.5978 4.39282 14.4745 6.27401 14.4745 8.59035C14.4745 10.9022 12.5978 12.7879 10.286 12.7879ZM17.9059 5.30848C17.5569 5.30848 17.2713 5.02291 17.2713 4.66933C17.2713 4.31576 17.5569 4.03019 17.9059 4.03019C18.2549 4.03019 18.5405 4.31576 18.5405 4.66933C18.5405 5.02291 18.2549 5.30848 17.9059 5.30848Z" fill="white"/>
</svg>
